<?xml version="1.0" encoding="utf-8"?>
<!-- Generator: Adobe Illustrator 16.0.4, SVG Export Plug-In . SVG Version: 6.00 Build 0)  -->
<!DOCTYPE svg PUBLIC "-//W3C//DTD SVG 1.1//EN" "http://www.w3.org/Graphics/SVG/1.1/DTD/svg11.dtd">
<svg version="1.1" id="Capa_1" xmlns="http://www.w3.org/2000/svg" xmlns:xlink="http://www.w3.org/1999/xlink" x="0px" y="0px"
	 width="64px" height="64px" viewBox="0 0 64 64" enable-background="new 0 0 64 64" xml:space="preserve">
<g>
	<path d="M16.318,26.702h8.025c0.883,0,1.601-0.718,1.601-1.6V13.946h17.652v19.947h1.602V13.946c0-0.883-0.719-1.6-1.602-1.6
		H25.945c-0.557,0-1.18,0.265-1.622,0.654c-0.101,0.076-0.201,0.17-0.302,0.302L15.36,24.781c-0.373,0.493-0.644,1.303-0.644,1.921
		v23.671c0,0.882,0.719,1.602,1.602,1.602H30.08v-1.602H16.318V26.702z M18.525,23.247l5.819-7.712v9.567h-7.219L18.525,23.247z"/>
	<path d="M47.923,51.123l-2.614-2.799c1.086-1.586,1.68-3.496,1.68-5.42c0-5.285-4.303-9.588-9.588-9.588
		c-5.288,0-9.587,4.303-9.587,9.588c0,5.287,4.3,9.591,9.587,9.591c1.498,0,2.986-0.359,4.33-1.043
		c0.01,0.009,0.019,0.017,0.026,0.026l2.694,2.883c0.447,0.479,1.078,0.755,1.734,0.755c0.605,0,1.178-0.228,1.619-0.638
		c0.463-0.434,0.733-1.021,0.756-1.654C48.581,52.188,48.355,51.586,47.923,51.123z M46.714,53.309
		c-0.282,0.264-0.829,0.246-1.095-0.039l-2.692-2.881c-0.069-0.076-0.126-0.168-0.161-0.273l-0.328-0.944l-0.849,0.524
		c-1.269,0.783-2.718,1.199-4.19,1.199c-4.402,0-7.986-3.584-7.986-7.988c0-4.403,3.584-7.987,7.986-7.987
		c4.404,0,7.988,3.584,7.988,7.985c0,1.839-0.644,3.636-1.806,5.056l-0.628,0.769l0.882,0.451c0.108,0.057,0.179,0.104,0.224,0.149
		l2.694,2.889c0.14,0.149,0.213,0.347,0.205,0.552C46.952,52.975,46.863,53.168,46.714,53.309z"/>
	<path d="M37.398,36.012c-3.799,0-6.892,3.094-6.892,6.893c0.001,3.804,3.093,6.896,6.892,6.896c3.803,0,6.895-3.093,6.895-6.896
		C44.293,39.105,41.201,36.012,37.398,36.012z M37.398,48.198c-2.918,0-5.292-2.373-5.292-5.294c0-2.918,2.374-5.29,5.292-5.29
		s5.293,2.372,5.293,5.29C42.691,45.825,40.316,48.198,37.398,48.198z"/>
</g>
</svg>
